<svg aria-hidden="true" style="position: absolute; width: 0; height: 0; overflow: hidden;" version="1.1" xmlns="http://www.w3.org/2000/svg" xmlns:xlink="http://www.w3.org/1999/xlink">
<defs>
<symbol id="icon-align-justify" viewBox="0 0 64 32">
<path fill="none" stroke="#7e847f" style="stroke: var(--color1, #7e847f)" stroke-linejoin="round" stroke-linecap="round" stroke-miterlimit="4" stroke-width="4" d="M56 20.667h-48"></path>
<path fill="none" stroke="#7e847f" style="stroke: var(--color1, #7e847f)" stroke-linejoin="round" stroke-linecap="round" stroke-miterlimit="4" stroke-width="4" d="M56 10h-48"></path>
</symbol>
<symbol id="icon-arrow" viewBox="0 0 32 32">
<path stroke-linejoin="round" stroke-linecap="round" stroke-miterlimit="4" stroke-width="2.6" d="M15 28l13-13M28 15l-13-13M28 15h-26"></path>
</symbol>
<symbol id="icon-fluent-food" viewBox="0 0 32 32">
<path fill="#f6f6f6" style="fill: var(--color2, #f6f6f6)" d="M7.36 9.143h-1.92c-0.532 0-0.96 0.459-0.96 1.029v4.457h-0.96c-0.176 0-0.32 0.154-0.32 0.343v2.057c0 0.188 0.144 0.343 0.32 0.343h0.96v4.457c0 0.57 0.428 1.028 0.96 1.028h1.92c0.532 0 0.96-0.459 0.96-1.028v-11.657c0-0.57-0.428-1.029-0.96-1.029zM28.48 14.629h-0.96v-4.457c0-0.57-0.428-1.029-0.96-1.029h-1.92c-0.532 0-0.96 0.459-0.96 1.029v11.657c0 0.57 0.428 1.028 0.96 1.028h1.92c0.532 0 0.96-0.459 0.96-1.028v-4.457h0.96c0.176 0 0.32-0.154 0.32-0.343v-2.057c0-0.189-0.144-0.343-0.32-0.343zM21.44 6.4h-1.92c-0.532 0-0.96 0.459-0.96 1.029v7.2h-5.12v-7.2c0-0.57-0.428-1.029-0.96-1.029h-1.92c-0.532 0-0.96 0.459-0.96 1.029v17.143c0 0.57 0.428 1.029 0.96 1.029h1.92c0.532 0 0.96-0.459 0.96-1.029v-7.2h5.12v7.2c0 0.57 0.428 1.029 0.96 1.029h1.92c0.532 0 0.96-0.459 0.96-1.029v-17.143c0-0.57-0.428-1.029-0.96-1.029z"></path>
</symbol>
<symbol id="icon-frame" viewBox="0 0 32 32">
<path fill="#f6f6f6" style="fill: var(--color2, #f6f6f6)" opacity="0.8" d="M24.24 6c-1.36-0.080-4.16-0.16-8.4-0.16h-0.56c-4.080 0-6.8 0.080-8.16 0.24-1.84 0.16-3.12 0.64-3.84 1.28-0.64 0.56-1.12 1.6-1.28 2.96-0.080 0.88-0.16 2.72-0.16 5.52v0.4c0 2.64 0.080 4.48 0.24 5.36 0.24 1.28 0.64 2.24 1.44 2.8 0.8 0.64 2.16 1.040 4.080 1.2 1.36 0.080 4.16 0.16 8.4 0.16h0.56c4.080 0 6.8-0.080 8.16-0.24 1.84-0.16 3.12-0.64 3.84-1.28 0.64-0.56 1.12-1.6 1.28-2.96 0.080-0.88 0.16-2.72 0.16-5.52v-0.4c0-2.64-0.080-4.48-0.24-5.36-0.24-1.28-0.64-2.24-1.44-2.8-0.8-0.64-2.16-1.040-4.080-1.2zM21.12 15.84l-8.8 5.28v-10.56l8.8 5.28z"></path>
</symbol>
<symbol id="icon-heart" viewBox="0 0 32 32">
<path fill="none" stroke="#f6f6f6" style="stroke: var(--color2, #f6f6f6)" stroke-linejoin="round" stroke-linecap="round" stroke-miterlimit="4" stroke-width="2.4" d="M27.787 6.147c-0.681-0.681-1.49-1.222-2.38-1.591s-1.844-0.559-2.807-0.559c-0.963 0-1.917 0.19-2.807 0.559s-1.699 0.909-2.38 1.591l-1.413 1.413-1.413-1.413c-1.376-1.376-3.241-2.148-5.187-2.148s-3.811 0.773-5.187 2.148c-1.376 1.376-2.148 3.241-2.148 5.187s0.773 3.811 2.148 5.187l11.787 11.787 11.787-11.787c0.681-0.681 1.222-1.49 1.591-2.38s0.559-1.844 0.559-2.807c0-0.963-0.19-1.917-0.559-2.807s-0.909-1.699-1.591-2.38z"></path>
</symbol>
<symbol id="icon-icon" viewBox="0 0 32 32">
<path fill="#f6f6f6" style="fill: var(--color2, #f6f6f6)" opacity="0.1" d="M30.118 16c0 8.317-6.742 15.059-15.059 15.059s-15.059-6.742-15.059-15.059c0-8.317 6.742-15.059 15.059-15.059s15.059 6.742 15.059 15.059z"></path>
<path fill="#f6f6f6" style="fill: var(--color2, #f6f6f6)" d="M23.275 12.148c-0.252-0.295-0.702-0.333-1.003-0.088l-1.976 1.622-0.909-2.2c-0.032-0.083-0.081-0.152-0.138-0.213-0.186-0.404-0.508-0.75-0.952-0.951-0.193-0.086-0.392-0.132-0.591-0.154-0.044-0.022-0.083-0.052-0.134-0.067l-3.477-0.947c-0.195-0.052-0.391-0.018-0.552 0.073-0.191 0.063-0.355 0.199-0.433 0.396l-1.309 3.289c-0.142 0.358 0.040 0.761 0.407 0.902 0.365 0.139 0.779-0.040 0.922-0.399l1.106-2.778 1.584 0.43c-0.039 0.061-0.080 0.118-0.112 0.183l-2.030 4.299c-0.029 0.063-0.045 0.127-0.066 0.193l-2.467 4.042-4.129 1.35c-0.467 0.341-0.566 0.985-0.221 1.441 0.347 0.458 1.008 0.555 1.474 0.217l4.225-1.422c0.129-0.092 0.223-0.212 0.294-0.341 0.053-0.055 0.114-0.099 0.154-0.167l1.471-2.41 2.611 2.174-2.794 3.076c-0.385 0.424-0.346 1.077 0.090 1.453 0.435 0.378 1.102 0.338 1.489-0.088l3.486-3.838c0.109-0.118 0.173-0.255 0.217-0.397 0.026-0.078 0.026-0.158 0.032-0.239 0-0.041 0.016-0.077 0.013-0.115-0.009-0.281-0.126-0.554-0.362-0.749l-2.403-2.002c0.173-0.161 0.32-0.353 0.427-0.578l1.556-3.293 0.499 1.298c0.021 0.115 0.061 0.228 0.144 0.323 0.075 0.088 0.171 0.146 0.273 0.187 0.010 0.005 0.023 0.006 0.035 0.009 0.065 0.023 0.13 0.044 0.198 0.047 0.080 0.007 0.162-0.003 0.244-0.025 0.002-0.001 0.003-0.001 0.003-0.001 0.022-0.005 0.044-0.001 0.066-0.010 0.116-0.043 0.204-0.115 0.281-0.2l2.835-2.352c0.301-0.248 0.174-0.686-0.079-0.981z"></path>
<path fill="#f6f6f6" style="fill: var(--color2, #f6f6f6)" d="M19.688 10.472c1.098 0 1.987-0.869 1.987-1.942s-0.89-1.942-1.987-1.942c-1.098 0-1.987 0.869-1.987 1.942s0.89 1.942 1.987 1.942z"></path>
</symbol>
<symbol id="icon-inverted-commas" viewBox="0 0 32 32">
<path fill="#f6f6f6" style="fill: var(--color2, #f6f6f6)" d="M8.201 17.468c1.546-0.612 2.785-0.452 3.719 0.481s1.21 2.421 0.831 4.462c-0.292 1.517-0.933 2.683-1.925 3.5-0.962 0.788-2.085 1.181-3.369 1.181-1.75 0-2.96-0.671-3.631-2.013-0.671-1.371-0.802-3.208-0.394-5.512 0.233-1.254 0.613-2.523 1.137-3.806s1.225-2.596 2.1-3.937c0.875-1.342 2.013-2.508 3.413-3.5s2.946-1.633 4.638-1.925l-0.438 4.637c-1.429 0.292-2.698 1.035-3.806 2.231-1.108 1.167-1.867 2.567-2.275 4.2zM21.37 17.468c1.546-0.612 2.785-0.452 3.719 0.481s1.21 2.421 0.831 4.462c-0.292 1.517-0.933 2.683-1.925 3.5-0.963 0.788-2.085 1.181-3.369 1.181-1.75 0-2.96-0.671-3.631-2.013-0.671-1.371-0.802-3.208-0.394-5.512 0.233-1.254 0.613-2.523 1.138-3.806s1.225-2.596 2.1-3.937 2.012-2.508 3.412-3.5c1.4-0.992 2.946-1.633 4.638-1.925l-0.438 4.637c-1.429 0.292-2.698 1.035-3.806 2.231-1.108 1.167-1.867 2.567-2.275 4.2z"></path>
</symbol>
<symbol id="icon-search" viewBox="0 0 32 32">
<path stroke-linejoin="round" stroke-linecap="round" stroke-miterlimit="4" stroke-width="2.6667" d="M14.667 25.333c5.891 0 10.667-4.776 10.667-10.667s-4.776-10.667-10.667-10.667c-5.891 0-10.667 4.776-10.667 10.667s4.776 10.667 10.667 10.667z"></path>
<path stroke-linejoin="round" stroke-linecap="round" stroke-miterlimit="4" stroke-width="2.6667" d="M28 28l-5.8-5.8"></path>
</symbol>
<symbol id="icon-star-gold" viewBox="0 0 32 32">
<path fill="#eea10c" style="fill: var(--color3, #eea10c)" d="M13.826 3.262c0.684-2.106 3.663-2.106 4.348 0l1.932 5.945c0.306 0.942 1.184 1.579 2.174 1.579h6.251c2.214 0 3.135 2.833 1.344 4.135l-5.057 3.674c-0.801 0.582-1.136 1.614-0.83 2.556l1.931 5.945c0.684 2.106-1.726 3.857-3.517 2.555l-5.057-3.674c-0.801-0.582-1.886-0.582-2.687 0l-5.057 3.674c-1.791 1.302-4.202-0.45-3.517-2.555l1.932-5.945c0.306-0.942-0.029-1.973-0.83-2.556l-5.057-3.674c-1.791-1.302-0.871-4.135 1.344-4.135h6.251c0.99 0 1.868-0.638 2.174-1.579l1.932-5.945z"></path>
</symbol>
<symbol id="icon-star" viewBox="0 0 32 32">
<path d="M13.826 3.262c0.684-2.106 3.663-2.106 4.348 0l1.932 5.945c0.306 0.942 1.184 1.579 2.174 1.579h6.251c2.214 0 3.135 2.833 1.344 4.135l-5.057 3.674c-0.801 0.582-1.136 1.614-0.83 2.556l1.931 5.945c0.684 2.106-1.726 3.857-3.517 2.555l-5.057-3.674c-0.801-0.582-1.886-0.582-2.687 0l-5.057 3.674c-1.791 1.302-4.202-0.45-3.517-2.555l1.932-5.945c0.306-0.942-0.029-1.973-0.83-2.556l-5.057-3.674c-1.791-1.302-0.871-4.135 1.344-4.135h6.251c0.99 0 1.868-0.638 2.174-1.579l1.932-5.945z"></path>
</symbol>
<symbol id="icon-trash" viewBox="0 0 32 32">
<path stroke-linejoin="round" stroke-linecap="round" stroke-miterlimit="4" stroke-width="2.6" d="M21.333 8v-1.067c0-1.493 0-2.24-0.291-2.811-0.256-0.502-0.664-0.91-1.165-1.165-0.57-0.291-1.317-0.291-2.811-0.291h-2.133c-1.493 0-2.24 0-2.811 0.291-0.502 0.256-0.91 0.664-1.165 1.165-0.291 0.57-0.291 1.317-0.291 2.811v1.067M13.333 15.333v6.667M18.667 15.333v6.667M4 8h24M25.333 8v14.933c0 2.24 0 3.36-0.436 4.216-0.384 0.753-0.995 1.364-1.748 1.748-0.856 0.436-1.976 0.436-4.216 0.436h-5.867c-2.24 0-3.36 0-4.216-0.436-0.753-0.384-1.365-0.995-1.748-1.748-0.436-0.856-0.436-1.976-0.436-4.216v-14.933"></path>
</symbol>
<symbol id="icon-x" viewBox="0 0 32 32">
<path stroke-linejoin="round" stroke-linecap="round" stroke-miterlimit="4" stroke-width="2.2857" d="M22.666 9.333l-13.333 13.333M9.333 9.333l13.333 13.333"></path>
</symbol>
<symbol id="icon-running-man" viewBox="0 0 24 24">
<path fill="#7e847f" style="fill: var(--color1, #7e847f)" d="M24 12c0 6.627-5.373 12-12 12s-12-5.373-12-12c0-6.627 5.373-12 12-12s12 5.373 12 12z"></path>
<path fill="#f6f6f6" style="fill: var(--color2, #f6f6f6)" d="M18.823 8.725c-0.21-0.25-0.583-0.283-0.834-0.075l-1.641 1.378-0.755-1.87c-0.027-0.070-0.068-0.129-0.114-0.181-0.154-0.343-0.422-0.638-0.791-0.808-0.16-0.073-0.326-0.112-0.491-0.131-0.036-0.019-0.069-0.044-0.111-0.057l-2.888-0.805c-0.162-0.044-0.325-0.016-0.458 0.062-0.159 0.054-0.295 0.169-0.36 0.336l-1.087 2.796c-0.118 0.304 0.033 0.647 0.338 0.767 0.303 0.118 0.647-0.034 0.766-0.339l0.918-2.361 1.315 0.366c-0.032 0.052-0.067 0.101-0.093 0.156l-1.686 3.655c-0.024 0.054-0.037 0.108-0.054 0.164l-2.049 3.435-3.429 1.147c-0.388 0.29-0.47 0.837-0.184 1.225 0.289 0.389 0.837 0.471 1.224 0.184l3.509-1.209c0.107-0.078 0.185-0.18 0.244-0.29 0.044-0.047 0.094-0.084 0.128-0.142l1.222-2.048 2.169 1.848-2.32 2.615c-0.32 0.36-0.288 0.916 0.075 1.235 0.361 0.321 0.915 0.288 1.236-0.075l2.896-3.262c0.090-0.101 0.144-0.217 0.18-0.338 0.022-0.066 0.022-0.134 0.027-0.203 0-0.035 0.013-0.066 0.010-0.098-0.008-0.239-0.105-0.471-0.301-0.637l-1.995-1.702c0.144-0.137 0.266-0.3 0.354-0.491l1.293-2.799 0.414 1.103c0.017 0.098 0.050 0.194 0.12 0.275 0.062 0.075 0.142 0.124 0.227 0.159 0.009 0.004 0.019 0.005 0.030 0.008 0.054 0.019 0.108 0.037 0.165 0.040 0.067 0.006 0.134-0.003 0.203-0.022 0.002-0.001 0.003-0.001 0.003-0.001 0.018-0.004 0.036-0.001 0.055-0.009 0.096-0.036 0.17-0.098 0.233-0.17l2.355-1.999c0.25-0.211 0.145-0.583-0.066-0.833z"></path>
<path fill="#f6f6f6" style="fill: var(--color2, #f6f6f6)" d="M15.845 7.301c0.912 0 1.651-0.739 1.651-1.651s-0.739-1.651-1.651-1.651c-0.912 0-1.65 0.739-1.65 1.651s0.739 1.651 1.65 1.651z"></path>
</symbol>
<symbol id="icon-rating-star" viewBox="0 0 26 24">
<path fill="#eea10c" style="fill: var(--color2, #eea10c)" d="M11.167 1.711c0.553-1.701 2.959-1.701 3.512 0l1.56 4.802c0.247 0.761 0.956 1.276 1.756 1.276h5.049c1.788 0 2.532 2.289 1.085 3.34l-4.084 2.967c-0.647 0.47-0.918 1.303-0.671 2.064l1.56 4.801c0.553 1.701-1.394 3.115-2.841 2.064l-4.084-2.968c-0.647-0.47-1.523-0.47-2.17 0l-4.084 2.968c-1.447 1.051-3.394-0.363-2.841-2.064l1.56-4.801c0.247-0.761-0.024-1.594-0.671-2.064l-4.084-2.967c-1.447-1.051-0.703-3.34 1.085-3.34h5.049c0.8 0 1.509-0.515 1.756-1.276l1.56-4.801z"></path>
</symbol>
<symbol id="icon-arrow-right" viewBox="0 0 24 24">
<path d="M11.293 5.707l5.293 5.293h-11.586c-0.552 0-1 0.448-1 1s0.448 1 1 1h11.586l-5.293 5.293c-0.391 0.391-0.391 1.024 0 1.414s1.024 0.391 1.414 0l7-7c0.092-0.092 0.166-0.202 0.217-0.324 0.101-0.245 0.101-0.521 0-0.766-0.049-0.118-0.121-0.228-0.217-0.324l-7-7c-0.391-0.391-1.024-0.391-1.414 0s-0.391 1.024 0 1.414z"></path>
</symbol>
<symbol id="icon-search2" viewBox="0 0 24 24">
<path d="M16.041 15.856c-0.034 0.026-0.067 0.055-0.099 0.087s-0.060 0.064-0.087 0.099c-1.258 1.213-2.969 1.958-4.855 1.958-1.933 0-3.682-0.782-4.95-2.050s-2.050-3.017-2.050-4.95 0.782-3.682 2.050-4.95 3.017-2.050 4.95-2.050 3.682 0.782 4.95 2.050 2.050 3.017 2.050 4.95c0 1.886-0.745 3.597-1.959 4.856zM21.707 20.293l-3.675-3.675c1.231-1.54 1.968-3.493 1.968-5.618 0-2.485-1.008-4.736-2.636-6.364s-3.879-2.636-6.364-2.636-4.736 1.008-6.364 2.636-2.636 3.879-2.636 6.364 1.008 4.736 2.636 6.364 3.879 2.636 6.364 2.636c2.125 0 4.078-0.737 5.618-1.968l3.675 3.675c0.391 0.391 1.024 0.391 1.414 0s0.391-1.024 0-1.414z"></path>
</symbol>
</defs>
</svg>
